<svg version="1.1" viewBox="0 0 32 32" xmlns="http://www.w3.org/2000/svg">
 <path d="m19.341 15.112a1.6241 1.6241 0 0 0-1.6227 1.6227c0 0.59874 0.32791 1.1165 0.81115 1.3979v0.2248s0 1.6227-1.6227 1.6227c-0.67264 0-1.1997 0.14426-1.6227 0.36508v-3.8349a1.6152 1.6152 0 0 0 0.81115-1.3979c0-0.89567-0.72707-1.6227-1.6227-1.6227-0.89567 0-1.6227 0.72707-1.6227 1.6227a1.6152 1.6152 0 0 0 0.81115 1.3979v5.3174a1.6152 1.6152 0 0 0-0.81115 1.3975c0 0.89523 0.72707 1.6227 1.6227 1.6227 0.89567 0 1.6227-0.72751 1.6227-1.6227 0-0.42482-0.16727-0.80805-0.43412-1.0983 0.23631-0.28985 0.61998-0.52439 1.2457-0.52439 3.2198 0 3.245-3.245 3.245-3.245v-0.2248a1.6165 1.6165 0 0 0 0.81115-1.3979 1.6241 1.6241 0 0 0-1.6227-1.6227zm-4.8678-0.81115c0.44872 0 0.81115 0.36243 0.81115 0.81115s-0.36243 0.81115-0.81115 0.81115c-0.44872 0-0.81115-0.36243-0.81115-0.81115s0.36243-0.81115 0.81115-0.81115zm0 9.7355a0.8107 0.8107 0 1 1 0.81115-0.81115 0.8107 0.8107 0 0 1-0.81115 0.81115zm4.8678-6.4905c-0.44828 0-0.81115-0.36243-0.81115-0.81115s0.36287-0.81115 0.81115-0.81115c0.44828 0 0.81115 0.36243 0.81115 0.81115s-0.36287 0.81115-0.81115 0.81115z" stroke-width=".44252"/>
 <g transform="matrix(1.0227 0 0 1.139 -508.83 -563.35)">
  <g transform="matrix(.0029419 0 0 -.0029419 498.45 506.72)">
   <path d="m422.4 3058.5c-107.2-38.3-197.2-116.8-258.5-225.9l-55.5-101.5-5.7-3511.2c-5.8-3974.5-17.2-3647.2 147.4-3811.8 166.6-166.6-275.7-153.1 4749.9-153.1s4583.3-13.4 4749.9 153.2c164.7 164.6 153.2-162.7 147.4 3811.8l-5.7 3511.2-57.4 103.4c-61.3 109.1-132.1 174.2-245.1 222.1-61.3 24.9-572.5 28.7-4583.3 28.7-3624.2-2-4527.9-5.8-4583.4-26.9zm3275.7-880.7v-603.1l91.8-107.2 2892.8-5.7 2892.8-3.8v-5776.1l-49.8-51.7-51.7-49.8h-8948.2l-51.7 47.9-49.8 46v3490.1c0 3176.2 1.9 3495.9 30.6 3534.2 17.2 24.9 49.8 51.7 72.7 61.3 21.1 9.6 744.7 17.2 1606.3 17.2l1564.2 1.9zm1952.8 103.4v-497.8h-1627.4v995.6h1627.4zm1968.1-3.8 3.8-493.9h-1646.4v995.5l819.4-3.8 817.5-5.7zm1910.7 438.4c46-53.6 46-55.5 46-493.9v-438.4h-1646.4v484.4c0 268 5.7 492 13.4 499.7 7.6 7.7 356.1 9.6 777.3 7.7l763.9-5.7z"/>
   <path d="m1155.7 2403.7c-24.9-17.2-51.7-51.7-61.3-76.6-21.1-55.5 9.6-155.1 57.4-180 23-11.5 377.2-19.2 915.1-19.2h878.8l40.2 44c61.3 65.1 57.4 170.4-7.7 222.1-49.8 40.2-70.8 40.2-915.1 40.2-761.9 0.2-869.1-3.7-907.4-30.5z"/>
  </g>
 </g>
 <g transform="matrix(.018031 0 0 .018031 7.0283 9.6589)" fill="#f75029">
  <path d="m902.4 791.3c153.2-217.4 100.3-524.9-118-685.5-218.2-160.7-520.4-114.5-673.5 102.9l72 53c125.2-177.9 372.5-215.7 551-84.2 178.5 131.4 221.8 383 96.5 560.9-125.3 177.7-372.5 215.6-551.1 84.1l-50.5 71.7c218.3 160.7 520.4 114.5 673.6-102.9z"/>
  <path d="M 40.3,386.4 297.9,331 10,119.2 Z"/>
 </g>
</svg>
